<?xml version="1.0" standalone="no"?>
<!DOCTYPE svg PUBLIC "-//W3C//DTD SVG 20010904//EN"
 "http://www.w3.org/TR/2001/REC-SVG-20010904/DTD/svg10.dtd">
<svg version="1.0" xmlns="http://www.w3.org/2000/svg"
 width="800.000000pt" height="800.000000pt" viewBox="0 0 800.000000 800.000000"
 preserveAspectRatio="xMidYMid meet">
<metadata>
Created by potrace 1.14, written by Peter Selinger 2001-2017
</metadata>
<g transform="translate(0.000000,800.000000) scale(0.100000,-0.100000)"
fill="#000000" stroke="none">
<path d="M3897 7974 c-1 -1 -63 -5 -137 -8 -145 -6 -175 -9 -260 -21 -30 -4
-66 -9 -80 -11 -32 -4 -78 -11 -110 -19 -14 -3 -36 -7 -50 -10 -14 -2 -68 -16
-120 -30 -52 -14 -99 -27 -105 -28 -5 -2 -28 -9 -50 -16 -64 -20 -65 -20 -68
-20 -4 1 -152 -62 -171 -72 -10 -6 -28 -12 -40 -15 -11 -2 -22 -8 -24 -14 -2
-5 -10 -10 -17 -10 -13 0 -133 -58 -145 -70 -3 -3 -18 -12 -35 -20 -16 -8 -87
-52 -157 -97 -225 -147 -392 -295 -596 -528 -10 -11 -36 -42 -57 -70 -22 -27
-46 -56 -52 -63 -7 -7 -13 -17 -13 -21 0 -4 -9 -19 -21 -32 -36 -41 -211 -318
-214 -339 -1 -3 -14 -30 -30 -60 -28 -52 -56 -109 -60 -120 -1 -3 -12 -27 -24
-55 -38 -83 -100 -245 -94 -245 3 0 1 -6 -4 -12 -10 -12 -28 -63 -38 -104 -3
-10 -18 -64 -35 -119 -16 -55 -32 -111 -34 -125 -3 -14 -8 -36 -11 -50 -3 -14
-8 -36 -11 -50 -3 -14 -11 -56 -19 -95 -8 -38 -17 -92 -21 -120 -3 -27 -8 -59
-10 -70 -2 -11 -7 -47 -10 -80 -3 -33 -7 -76 -10 -95 -24 -188 -23 -746 1
-975 2 -22 6 -62 9 -90 3 -27 8 -63 11 -80 4 -16 8 -46 10 -65 2 -19 6 -46 9
-60 2 -14 7 -41 10 -60 13 -84 60 -275 97 -395 17 -55 32 -104 34 -110 1 -5 7
-21 12 -35 6 -14 20 -54 33 -90 25 -72 40 -106 111 -258 27 -57 49 -108 49
-113 0 -5 5 -9 10 -9 6 0 10 -5 10 -11 0 -11 136 -242 172 -293 199 -281 398
-488 653 -680 33 -25 65 -50 72 -56 7 -5 15 -10 19 -10 4 0 21 -11 38 -23 17
-13 54 -37 81 -52 28 -16 52 -32 55 -35 6 -6 66 -37 223 -116 16 -8 35 -14 43
-14 8 0 14 -4 14 -10 0 -5 8 -10 18 -10 10 0 23 -5 30 -12 7 -7 12 -8 12 -4 0
5 10 2 23 -6 12 -8 67 -29 122 -47 55 -18 107 -35 115 -38 8 -4 24 -8 34 -10
10 -2 53 -12 95 -23 85 -21 118 -28 176 -36 22 -3 46 -7 53 -10 8 -2 37 -7 65
-10 29 -3 63 -7 77 -10 136 -22 532 -22 700 0 62 9 117 17 145 21 63 10 91 15
115 20 13 3 42 7 65 11 22 3 42 7 44 10 2 2 36 -19 76 -46 39 -28 77 -50 83
-50 7 0 12 -4 12 -8 0 -4 37 -32 83 -62 45 -30 88 -60 95 -67 7 -7 17 -13 22
-13 5 0 15 -6 22 -12 22 -21 139 -98 148 -98 5 0 10 -3 12 -7 2 -5 71 -54 155
-110 83 -57 226 -154 317 -215 92 -62 174 -117 184 -123 9 -5 19 -12 22 -15 3
-3 68 -48 145 -99 370 -250 451 -305 467 -318 21 -19 30 -13 70 45 18 26 36
52 41 57 4 6 70 98 146 205 77 107 160 223 185 257 25 34 46 67 46 73 0 5 4
10 8 10 5 0 28 30 52 66 24 37 49 72 54 78 18 19 77 108 74 110 -2 1 -46 29
-98 61 -52 33 -97 62 -100 65 -3 3 -21 14 -41 25 -40 22 -435 268 -527 327
-31 21 -64 41 -72 45 -8 3 -41 24 -73 45 -32 21 -62 38 -66 38 -4 0 -16 8 -27
18 -11 11 -25 21 -30 23 -6 2 -91 53 -188 114 l-177 110 63 55 c164 143 369
369 468 515 19 28 38 55 42 60 11 13 54 82 126 200 12 20 155 311 172 350 36
81 69 169 108 285 44 133 58 181 88 310 8 36 17 74 20 85 10 44 25 123 34 185
5 36 12 75 14 87 3 12 8 53 11 90 4 37 8 79 10 93 17 114 24 645 11 805 -3 33
-7 87 -10 120 -4 55 -9 99 -22 195 -9 66 -36 218 -48 270 -3 14 -8 36 -10 50
-3 14 -9 40 -15 58 -5 18 -10 36 -11 40 0 4 -5 25 -11 47 -6 22 -13 48 -15 59
-6 35 -107 321 -117 334 -5 6 -7 12 -3 12 3 0 -5 23 -19 50 -14 28 -23 50 -21
50 5 0 -124 256 -163 325 -41 71 -85 140 -93 143 -5 2 -8 8 -8 13 0 14 -104
155 -194 264 -128 154 -277 300 -432 425 -95 77 -377 260 -400 260 -4 0 -15 6
-23 13 -13 10 -152 77 -246 118 -39 17 -130 51 -145 54 -8 2 -41 13 -72 24
-32 11 -58 18 -58 15 0 -3 -9 0 -21 6 -11 7 -33 14 -47 16 -15 3 -52 11 -82
19 -30 7 -68 16 -85 18 -16 3 -41 8 -55 11 -36 8 -87 16 -145 22 -27 3 -61 7
-75 9 -31 6 -369 22 -373 19z m253 -1047 c14 -3 45 -8 70 -11 174 -24 422
-118 537 -202 17 -13 36 -24 42 -24 6 0 11 -4 11 -8 0 -4 12 -15 28 -25 65
-40 220 -192 289 -284 15 -21 30 -40 33 -43 3 -3 10 -12 15 -21 6 -9 22 -34
37 -57 43 -64 118 -203 118 -218 0 -8 5 -14 10 -14 6 0 10 -8 10 -18 0 -10 4
-22 9 -27 13 -14 88 -218 117 -320 10 -35 25 -94 30 -115 2 -14 7 -31 10 -39
2 -8 7 -30 10 -50 3 -20 10 -43 15 -52 4 -9 6 -19 3 -21 -2 -3 0 -25 5 -50 17
-76 38 -248 45 -369 2 -25 6 -51 10 -57 4 -7 3 -12 -2 -12 -6 0 -7 -14 -3 -32
8 -38 6 -526 -3 -643 -17 -223 -23 -270 -63 -485 -4 -25 -21 -102 -29 -130 -5
-19 -23 -90 -29 -112 -3 -10 -7 -26 -9 -35 -9 -35 -48 -148 -77 -220 -183
-462 -515 -800 -919 -937 -72 -24 -89 -29 -155 -42 -16 -3 -37 -8 -45 -11 -8
-3 -26 -6 -40 -8 -14 -1 -59 -6 -100 -10 -129 -15 -373 -10 -490 10 -14 2 -41
7 -60 10 -51 8 -166 42 -230 68 -30 12 -57 22 -60 22 -18 2 -168 87 -233 132
-171 120 -352 322 -454 508 -74 134 -161 335 -155 358 1 4 -2 7 -7 7 -5 0 -11
12 -14 28 -3 15 -17 70 -32 122 -15 52 -28 102 -30 110 -2 8 -6 26 -9 40 -3
14 -8 36 -10 50 -3 14 -8 36 -11 50 -3 14 -7 39 -10 55 -12 85 -16 112 -21
134 -3 13 -7 56 -10 95 -3 39 -7 82 -9 96 -22 114 -22 767 0 945 6 49 15 126
20 180 3 22 7 51 10 65 6 28 11 57 19 110 19 122 132 505 158 538 6 6 7 12 3
12 -3 0 3 15 14 34 12 18 21 40 21 48 0 9 7 21 15 28 8 7 12 16 9 21 -3 5 0 9
5 9 6 0 11 6 11 13 0 11 86 161 109 190 6 6 40 49 76 95 103 131 274 281 382
337 21 10 49 27 63 36 14 9 48 24 75 34 28 10 55 21 60 25 21 14 150 51 233
66 12 2 34 6 50 9 15 3 54 8 87 11 33 3 62 7 64 9 5 5 350 -3 381 -8z"/>
</g>
</svg>
