<svg width="305" height="305" viewBox="0 0 305 305" fill="none" xmlns="http://www.w3.org/2000/svg">
<path d="M204.922 140.586C208.83 140.586 212.07 143.827 212.07 147.734C212.07 151.642 208.83 154.883 204.922 154.883C201.014 154.883 197.773 151.642 197.773 147.734C197.773 143.827 201.014 140.586 204.922 140.586ZM100.078 140.586C103.986 140.586 107.227 143.827 107.227 147.734C107.227 151.642 103.986 154.883 100.078 154.883C96.1703 154.883 92.9297 151.642 92.9297 147.734C92.9297 143.827 96.1703 140.586 100.078 140.586Z" fill="#414758"/>
<path d="M262.109 295.469H42.8906C40.26 295.469 38.125 293.334 38.125 290.703V14.2969C38.125 11.6662 40.26 9.53125 42.8906 9.53125H204.922C207.553 9.53125 209.688 11.6662 209.688 14.2969C209.688 16.9275 207.553 19.0625 204.922 19.0625H47.6562V285.938H257.344V71.4844C257.344 68.8537 259.479 66.7188 262.109 66.7188C264.74 66.7188 266.875 68.8537 266.875 71.4844V290.703C266.875 293.334 264.74 295.469 262.109 295.469Z" fill="#3594C1"/>
<path d="M261.909 76.25H204.922C202.291 76.25 200.156 74.115 200.156 71.4844V38.125C200.156 35.4944 202.291 33.3594 204.922 33.3594C207.552 33.3594 209.687 35.4944 209.687 38.125V66.7188H250.424L201.548 17.6614C199.689 15.8028 199.699 12.7814 201.557 10.9228C203.425 9.06423 206.447 9.06423 208.296 10.9419L265.283 68.1294C266.646 69.4924 267.047 71.532 266.313 73.3144C265.569 75.0872 263.835 76.25 261.909 76.25ZM166.797 181.094C164.166 181.094 162.031 178.959 162.031 176.328C162.031 171.067 157.752 166.797 152.5 166.797C147.248 166.797 142.969 171.067 142.969 176.328C142.969 178.959 140.834 181.094 138.203 181.094C135.572 181.094 133.437 178.959 133.437 176.328C133.437 165.815 141.987 157.266 152.5 157.266C163.013 157.266 171.562 165.815 171.562 176.328C171.562 178.959 169.427 181.094 166.797 181.094ZM204.922 159.648C198.355 159.648 193.008 154.301 193.008 147.734C193.008 141.167 198.355 135.82 204.922 135.82C211.489 135.82 216.836 141.167 216.836 147.734C216.836 154.301 211.489 159.648 204.922 159.648ZM204.922 145.352C203.654 145.352 202.539 146.467 202.539 147.734C202.539 149.002 203.654 150.117 204.922 150.117C206.19 150.117 207.305 149.002 207.305 147.734C207.305 146.467 206.19 145.352 204.922 145.352ZM100.078 159.648C93.5111 159.648 88.1641 154.301 88.1641 147.734C88.1641 141.167 93.5111 135.82 100.078 135.82C106.645 135.82 111.992 141.167 111.992 147.734C111.992 154.301 106.645 159.648 100.078 159.648ZM100.078 145.352C98.8105 145.352 97.6953 146.467 97.6953 147.734C97.6953 149.002 98.8105 150.117 100.078 150.117C101.346 150.117 102.461 149.002 102.461 147.734C102.461 146.467 101.346 145.352 100.078 145.352Z" fill="#3594C1"/>
<path d="M262.109 295.469H42.8906C40.26 295.469 38.125 293.334 38.125 290.703V14.2969C38.125 11.6662 40.26 9.53125 42.8906 9.53125H204.922C207.553 9.53125 209.688 11.6662 209.688 14.2969C209.688 16.9275 207.553 19.0625 204.922 19.0625H47.6562V285.938H257.344V71.4844C257.344 68.8537 259.479 66.7188 262.109 66.7188C264.74 66.7188 266.875 68.8537 266.875 71.4844V290.703C266.875 293.334 264.74 295.469 262.109 295.469Z" fill="#414758"/>
<path d="M261.909 76.25H204.922C202.291 76.25 200.156 74.115 200.156 71.4844V38.125C200.156 35.4944 202.291 33.3594 204.922 33.3594C207.552 33.3594 209.687 35.4944 209.687 38.125V66.7188H250.424L201.548 17.6614C199.689 15.8028 199.699 12.7814 201.557 10.9228C203.425 9.06423 206.447 9.06423 208.296 10.9419L265.283 68.1294C266.646 69.4924 267.047 71.532 266.313 73.3144C265.569 75.0872 263.835 76.25 261.909 76.25ZM166.797 181.094C164.166 181.094 162.031 178.959 162.031 176.328C162.031 171.067 157.752 166.797 152.5 166.797C147.248 166.797 142.969 171.067 142.969 176.328C142.969 178.959 140.834 181.094 138.203 181.094C135.572 181.094 133.437 178.959 133.437 176.328C133.437 165.815 141.987 157.266 152.5 157.266C163.013 157.266 171.562 165.815 171.562 176.328C171.562 178.959 169.427 181.094 166.797 181.094ZM204.922 159.648C198.355 159.648 193.008 154.301 193.008 147.734C193.008 141.167 198.355 135.82 204.922 135.82C211.489 135.82 216.836 141.167 216.836 147.734C216.836 154.301 211.489 159.648 204.922 159.648ZM204.922 145.352C203.654 145.352 202.539 146.467 202.539 147.734C202.539 149.002 203.654 150.117 204.922 150.117C206.19 150.117 207.305 149.002 207.305 147.734C207.305 146.467 206.19 145.352 204.922 145.352ZM100.078 159.648C93.5111 159.648 88.1641 154.301 88.1641 147.734C88.1641 141.167 93.5111 135.82 100.078 135.82C106.645 135.82 111.992 141.167 111.992 147.734C111.992 154.301 106.645 159.648 100.078 159.648ZM100.078 145.352C98.8105 145.352 97.6953 146.467 97.6953 147.734C97.6953 149.002 98.8105 150.117 100.078 150.117C101.346 150.117 102.461 149.002 102.461 147.734C102.461 146.467 101.346 145.352 100.078 145.352Z" fill="#414758"/>
</svg>
